<svg id="Layer_1" data-name="Layer 1" xmlns="http://www.w3.org/2000/svg" xmlns:xlink="http://www.w3.org/1999/xlink" viewBox="0 0 40.34 40.49"><defs><style>.cls-1{fill:url(#linear-gradient);}.cls-2{fill:url(#linear-gradient-2);}.cls-3{fill:url(#linear-gradient-3);}.cls-4{fill:url(#linear-gradient-4);}.cls-5{fill:url(#linear-gradient-5);}.cls-6{fill:url(#linear-gradient-6);}.cls-7{fill:url(#linear-gradient-7);}.cls-8{fill:#fff;}</style><linearGradient id="linear-gradient" x1="27.89" y1="8.81" x2="27.89" y2="32.58" gradientUnits="userSpaceOnUse"><stop offset="0.13" stop-color="#0073af"/><stop offset="0.99" stop-color="#1a518e"/></linearGradient><linearGradient id="linear-gradient-2" x1="12.87" y1="16.26" x2="12.87" y2="19.41" xlink:href="#linear-gradient"/><linearGradient id="linear-gradient-3" x1="12.87" y1="24.16" x2="12.87" y2="27.32" xlink:href="#linear-gradient"/><linearGradient id="linear-gradient-4" x1="8.82" y1="20.12" x2="8.82" y2="23.27" xlink:href="#linear-gradient"/><linearGradient id="linear-gradient-5" x1="4.89" y1="16.88" x2="4.89" y2="19.46" xlink:href="#linear-gradient"/><linearGradient id="linear-gradient-6" x1="2.05" y1="14.17" x2="2.05" y2="16.38" xlink:href="#linear-gradient"/><linearGradient id="linear-gradient-7" x1="2.05" y1="20.4" x2="2.05" y2="22.61" xlink:href="#linear-gradient"/></defs><path class="cls-1" d="M16.19,21.54V11.19A2.74,2.74,0,0,1,20.3,8.82l9,5.17,9,5.18a2.74,2.74,0,0,1,0,4.75l-9,5.17-9,5.18a2.74,2.74,0,0,1-4.11-2.37Z"/><rect class="cls-2" x="11.13" y="16.21" width="3.48" height="3.48"/><rect class="cls-3" x="11.13" y="24.12" width="3.48" height="3.48"/><rect class="cls-4" x="7.08" y="20.07" width="3.48" height="3.48"/><rect class="cls-5" x="3.47" y="16.84" width="2.85" height="2.85"/><rect class="cls-6" x="0.83" y="14.14" width="2.44" height="2.44"/><rect class="cls-7" x="0.83" y="20.37" width="2.44" height="2.44"/><rect class="cls-8" x="16.03" y="15.35" width="2.43" height="2.62"/><rect class="cls-8" x="16.09" y="20.58" width="3.42" height="4.09"/><rect class="cls-8" x="19.22" y="24.51" width="4.09" height="4.09"/></svg>